<svg width="35" height="35" viewBox="0 0 35 35" fill="none" xmlns="http://www.w3.org/2000/svg">
<g clip-path="url(#clip0)">
<path d="M24.6737 4.22361C22.393 2.83671 19.7737 2.10203 17.0866 2.10203C14.6178 2.10203 12.1791 2.72426 10.0414 3.90875L9.01025 2.07204C11.4565 0.715124 14.249 0.00292969 17.0791 0.00292969C20.1576 0.00292969 23.1683 0.842568 25.7801 2.43188L24.6737 4.22361Z" fill="#4DFFCA"/>
<path d="M31.2459 11.6518C30.6889 9.65762 29.7254 7.8434 28.3781 6.24659L29.7405 5.12207C31.2459 6.9138 32.3222 8.95292 32.9469 11.1795L31.2459 11.6518Z" fill="#1ED4FF"/>
<path d="M27.7618 30.0871L26.3919 28.4828C29.6586 25.739 31.5328 21.7357 31.5328 17.5H33.6553C33.6553 22.3504 31.5102 26.9384 27.7618 30.0871Z" fill="#4DFFCA"/>
<path d="M16.6519 33.926C12.7906 33.926 9.02713 32.5841 6.05402 30.1551L7.40885 28.5283C9.9981 30.6499 13.2873 31.8194 16.6519 31.8194C19.0078 31.8194 21.2583 31.2796 23.3282 30.2151L24.3067 32.0818C21.9658 33.2888 19.3164 33.926 16.6519 33.926Z" fill="#4DFFCA"/>
<path d="M2.70965 25.8164C0.933303 23.1476 -3.05176e-05 20.0439 -3.05176e-05 16.8428C-3.05176e-05 12.3822 1.78384 8.21402 5.0204 5.11035L6.24728 6.37731C3.36449 9.14362 1.76879 12.862 1.76879 16.8428C1.76879 19.6991 2.60427 22.4729 4.18492 24.8494L2.70965 25.8164Z" fill="#1ED4FF"/>
<path d="M16.8786 27.6495C10.9023 27.6495 6.03989 22.829 6.03989 16.9141C6.03989 10.9916 10.9023 6.17871 16.8786 6.17871C22.8549 6.17871 27.7173 10.9991 27.7173 16.9141C27.7173 22.8365 22.8549 27.6495 16.8786 27.6495ZM16.8786 8.27781C12.0764 8.27781 8.16247 12.1536 8.16247 16.9141C8.16247 21.6745 12.0689 25.5504 16.8786 25.5504C21.6807 25.5504 25.5947 21.6745 25.5947 16.9141C25.5947 12.1536 21.6883 8.27781 16.8786 8.27781Z" fill="#4DFFCA"/>
</g>
<defs>
<clipPath id="clip0">
<rect width="35" height="35" fill="white"/>
</clipPath>
</defs>
</svg>
