<svg width="25" height="35" viewBox="0 0 25 35" fill="none" xmlns="http://www.w3.org/2000/svg">
<path d="M0.000976562 17.5184L12.579 11.7158L24.9949 17.4762L12.5898 23.2838L0.000976562 17.5184Z" fill="#009F42"/>
<path d="M0.000976562 17.5184L12.579 11.7158L24.9949 17.4762L12.5898 23.2838L0.000976562 17.5184Z" fill="#01C853"/>
<path d="M12.5797 11.7158L24.9956 17.4762L12.5905 23.2838L12.5797 11.7158Z" fill="#009F42"/>
<path d="M12.5801 18.4086L24.996 17.4766L12.5909 23.2841L12.5801 18.4086H12.5801Z" fill="#007831"/>
<path d="M12.579 18.4085L0.000976562 17.5186L12.5682 23.284L12.579 18.4085H12.579Z" fill="#009F42"/>
<path d="M0 19.0615C4.40589 21.0818 8.99683 23.1993 12.5513 24.8365L25 19.0631C20.4927 24.8531 16.7383 29.6692 12.5513 34.9999C8.35907 29.6804 3.72677 23.8088 0 19.0615Z" fill="#009F42"/>
<path d="M0 19.0615C4.40589 21.0818 8.99683 23.1993 12.5513 24.8365L25 19.0631C20.4927 24.8531 16.7383 29.6692 12.5513 34.9999C8.35907 29.6804 3.72677 23.8088 0 19.0615Z" fill="#01C853"/>
<path d="M12.551 24.8368L24.9997 19.0635C20.4924 24.8535 12.551 35.0003 12.551 35.0003L12.551 24.8368Z" fill="#009F42"/>
<path d="M12.551 24.8368L24.9997 19.0635C20.4924 24.8535 16.738 29.6696 12.551 35.0003L12.551 24.8368Z" fill="#009F42"/>
<path d="M12.5487 10.1023L0.00128174 15.8141L12.4942 0L24.9951 15.8486L12.5487 10.1023Z" fill="#01C853"/>
<path d="M12.5492 10.1023L12.4948 0L24.9957 15.8486L12.5492 10.1023Z" fill="#009F42"/>
</svg>
