<svg width="35" height="35" viewBox="0 0 35 35" fill="none" xmlns="http://www.w3.org/2000/svg">
<g clip-path="url(#clip0)">
<path d="M35.0005 17.4983C35.0005 27.162 27.1663 34.9965 17.5009 34.9965C7.83549 34.9965 0.00131226 27.162 0.00131226 17.4983C0.00131226 7.83456 7.83568 0 17.5009 0C27.1661 0 35.0005 7.83382 35.0005 17.4983Z" fill="white"/>
<path d="M17.5 0C7.83804 0 -0.0100273 7.84565 0.00227274 17.4977C0.00469547 19.4288 0.312662 21.2864 0.89067 23.0239H6.12638V8.30396L17.5 19.6763L28.873 8.30396V23.0242H34.1099C34.6887 21.2867 34.9951 19.4292 34.9986 17.498C35.015 7.83587 27.163 0.0023293 17.5 0.0023293V0Z" fill="#F26822"/>
<path d="M14.8842 22.2904L9.92071 17.3271V26.5898H6.12587L2.54498 26.5904C5.61654 31.6291 11.1676 34.9997 17.4999 34.9997C23.8321 34.9997 29.3834 31.6284 32.4556 26.5897H25.0779V17.3271L20.1141 22.2904L17.4993 24.9049L14.8844 22.2904H14.8842Z" fill="#4D4D4D"/>
</g>
<defs>
<clipPath id="clip0">
<rect width="35" height="35" fill="white"/>
</clipPath>
</defs>
</svg>
