<svg width="21" height="35" viewBox="0 0 21 35" fill="none" xmlns="http://www.w3.org/2000/svg">
<g clip-path="url(#clip0)">
<path d="M9.10375 28.3986L0 34.9998L5.77935 8.14031L9.10375 28.3986ZM9.28787 28.3366L14.832 28.4089L5.99415 8.24362L9.28787 28.3366ZM15.3536 27.8924L19.5986 12.0039L17.9927 10.0205L15.3536 27.8924ZM13.3078 2.98535L6.32148 7.73742L16.53 4.40064L13.3078 2.98535ZM12.4282 2.98535L8.09109 3.12998L7.45689 4.95849L12.4282 2.98535Z" fill="#384182"/>
<path d="M17.6857 9.41107L6.50549 7.86148L16.581 4.659L17.6857 9.41107ZM15.0364 3.43999L15.6502 1.75611L12.428 0.34082L15.0364 3.43999ZM15.9673 1.59082L16.6935 4.23545L20.9897 3.08875L15.9673 1.59082Z" fill="#F79534"/>
<path d="M15.0775 28.3058L6.11691 8.05785L17.7984 9.71074L15.0775 28.3058ZM12.9703 2.98554L7.44667 5.16529L6.11691 7.64463L12.9703 2.98554ZM9.5436 1.33264L8.1627 2.8719L12.7453 2.75826L9.5436 1.33264ZM11.9576 0.134298L9.76864 1.15702L14.7604 3.3781L11.9576 0.134298ZM14.4535 0H12.1008L15.7423 1.42562L14.4535 0ZM15.8139 1.8905L15.2513 3.58471L16.3765 4.13223L15.8139 1.8905Z" fill="#F0513A"/>
</g>
<defs>
<clipPath id="clip0">
<rect width="21" height="35" fill="white"/>
</clipPath>
</defs>
</svg>
